<?xml version="1.0" encoding="utf-8"?>
<!-- Generator: Adobe Illustrator 15.1.0, SVG Export Plug-In . SVG Version: 6.00 Build 0)  -->
<!DOCTYPE svg PUBLIC "-//W3C//DTD SVG 1.1//EN" "http://www.w3.org/Graphics/SVG/1.1/DTD/svg11.dtd">
<svg version="1.1" id="Calque_1" xmlns:sketch="http://www.bohemiancoding.com/sketch/ns"
	 xmlns="http://www.w3.org/2000/svg" xmlns:xlink="http://www.w3.org/1999/xlink" x="0px" y="0px" width="135px" height="140px"
	 viewBox="0 0 135 140" enable-background="new 0 0 135 140" xml:space="preserve">
<title>svg-workshop</title>
<description>Created with Sketch (http://www.bohemiancoding.com/sketch)</description>
<g id="Page-1" sketch:type="MSPage">
	<g id="noun_49675_cc" transform="translate(21.000000, 20.000000)" sketch:type="MSLayerGroup">
		<g id="Group" sketch:type="MSShapeGroup">
			<path id="Shape" fill="#FFFFFF" d="M25.315,63.165C20.904,58.391,18.202,52.014,18.202,45C18.202,30.2,30.2,18.202,45,18.202
				c5.927,0,11.398,1.932,15.835,5.19c0.41,0.301,0.812,0.611,1.203,0.934l12.36-13.376c-0.383-0.331-0.774-0.654-1.168-0.972
				C65.509,3.745,55.695,0,45,0C20.147,0,0,20.147,0,45c0,12.521,5.13,23.831,13.384,31.986l11.814-13.688L25.315,63.165
				L25.315,63.165z"/>
			<path id="Shape_1_" fill="#FFFFFF" d="M62.77,65.047C58.04,69.244,51.82,71.798,45,71.798c-3.428,0-6.703-0.649-9.715-1.825
				l-0.081,0.153l-8.427,16.011C32.349,88.611,38.51,90,45,90c12.197,0,23.25-4.865,31.354-12.746L62.902,65.166L62.77,65.047
				L62.77,65.047z"/>
			<path id="Shape_2_" fill="#FFFFFF" d="M77.684,14.098c-0.348-0.368-0.701-0.73-1.062-1.086L64.266,26.385
				c0.354,0.365,0.693,0.741,1.025,1.126c4.051,4.694,6.507,10.802,6.507,17.489c0,5.794-1.845,11.152-4.971,15.535
				c-0.295,0.413-0.601,0.818-0.917,1.215c-0.317,0.395-0.641,0.784-0.979,1.16l13.537,12.165c0.338-0.376,0.664-0.763,0.989-1.151
				c0.326-0.388,0.642-0.781,0.955-1.181C86.411,65.098,90,55.473,90,45C90,33.027,85.311,22.159,77.684,14.098L77.684,14.098z"/>
			<path id="Shape_3_" fill="#FC4349" d="M31.198,67.967c-0.435-0.262-0.863-0.537-1.281-0.822l0.035-0.066l-0.049,0.056
				c-0.419-0.286-0.83-0.585-1.232-0.895c-0.401-0.31-0.793-0.63-1.175-0.959l-11.89,13.776c0.383,0.33,0.782,0.642,1.176,0.959
				l1.121,1.022l0.073-0.084c1.107,0.834,2.253,1.618,3.437,2.349c0.43,0.266,0.869,0.52,1.309,0.771
				c0.439,0.251,0.873,0.51,1.321,0.745l8.477-16.106C32.071,68.477,31.631,68.229,31.198,67.967L31.198,67.967z"/>
		</g>
	</g>
	<g id="noun_22662_cc" transform="translate(-144.000000, 30.000000)" sketch:type="MSLayerGroup">
		<path id="Shape_4_" sketch:type="MSShapeGroup" d="M153,80v7"/>
	</g>
</g>
</svg>
