<?xml version="1.0" encoding="utf-8"?>
<!-- Generator: Adobe Illustrator 15.1.0, SVG Export Plug-In . SVG Version: 6.00 Build 0)  -->
<!DOCTYPE svg PUBLIC "-//W3C//DTD SVG 1.1//EN" "http://www.w3.org/Graphics/SVG/1.1/DTD/svg11.dtd">
<svg version="1.1" id="Calque_1" xmlns:sketch="http://www.bohemiancoding.com/sketch/ns"
	 xmlns="http://www.w3.org/2000/svg" xmlns:xlink="http://www.w3.org/1999/xlink" x="0px" y="0px" width="135px" height="140px"
	 viewBox="0 0 135 140" enable-background="new 0 0 135 140" xml:space="preserve">
<title>svg-workshop</title>
<description>Created with Sketch (http://www.bohemiancoding.com/sketch)</description>
<g id="Page-1" sketch:type="MSPage">
	<g id="data" transform="translate(35.000000, 26.000000)" sketch:type="MSLayerGroup">
		<g id="Group" sketch:type="MSShapeGroup">
			<path id="Shape" fill="#FFFFFF" d="M64.703,54.746c-3.576,5.614-14.22,9.869-27.281,10.662c-0.672,0.042-1.352,0.071-2.036,0.093
				c-0.122,0.005-0.244,0.009-0.366,0.012c-0.667,0.019-1.34,0.03-2.018,0.03h-0.004h-0.003c-0.678,0-1.35-0.014-2.019-0.03
				c-0.123-0.003-0.244-0.007-0.365-0.012c-0.684-0.021-1.363-0.052-2.035-0.093C15.513,64.615,4.869,60.361,1.292,54.746
				C0.449,53.424,0,54.132,0,54.787v9.155c0,5.57,5.836,11.269,14.692,14.733l0,0.002c0.032,0.013,0.066,0.023,0.099,0.036
				c0.557,0.216,1.127,0.422,1.707,0.62c0.125,0.043,0.247,0.086,0.372,0.125c0.629,0.21,1.268,0.41,1.92,0.598
				c0.03,0.008,0.062,0.017,0.094,0.025c0.616,0.172,1.246,0.335,1.882,0.487c0.145,0.034,0.29,0.069,0.435,0.103
				c0.674,0.156,1.355,0.303,2.051,0.43c0.031,0.008,0.063,0.014,0.093,0.019c0.656,0.122,1.325,0.228,1.998,0.325
				c0.171,0.024,0.341,0.049,0.513,0.072c0.709,0.096,1.422,0.182,2.147,0.249c0.028,0.003,0.057,0.005,0.086,0.007
				c0.694,0.062,1.397,0.11,2.105,0.146c0.189,0.012,0.377,0.019,0.567,0.027C31.498,81.979,32.242,82,32.994,82h0.003h0.001h0.001
				h0.004c0.751,0,1.495-0.02,2.235-0.052c0.189-0.01,0.378-0.019,0.566-0.026c0.709-0.037,1.411-0.084,2.105-0.147
				c0.029-0.003,0.057-0.005,0.086-0.007c0.727-0.068,1.439-0.154,2.148-0.248c0.173-0.023,0.342-0.049,0.513-0.073
				c0.673-0.097,1.341-0.204,1.998-0.325c0.03-0.006,0.062-0.011,0.095-0.018c0.693-0.129,1.375-0.275,2.05-0.431
				c0.145-0.033,0.288-0.067,0.433-0.103c0.639-0.152,1.27-0.314,1.887-0.489c0.03-0.009,0.061-0.017,0.092-0.023
				c0.654-0.188,1.292-0.388,1.922-0.597c0.125-0.041,0.246-0.084,0.367-0.125c0.581-0.2,1.156-0.406,1.713-0.623
				c0.031-0.013,0.064-0.021,0.096-0.034l-0.001-0.001C60.164,75.211,66,69.513,66,63.943v-9.154
				C65.996,54.133,65.547,53.426,64.703,54.746L64.703,54.746z"/>
			<path id="Shape_1_" fill="#FFFFFF" d="M65.955,11.582C65.072,5.13,50.658,0,33,0c0,0,0,0,0,0c-0.001,0,0,0-0.001,0
				C14.771,0,0,5.466,0,12.209v5.841C0,25.203,14.771,31,32.999,31H33h0c17.658,0,32.072-5.441,32.955-12.283
				C65.984,18.495,66,18.274,66,18.05v-5.841C65.998,11.999,65.984,11.79,65.955,11.582L65.955,11.582z"/>
			<path id="Shape_2_" fill="#FC4349" stroke="#000000" stroke-miterlimit="10" d="M64.764,29.667
				c-3.09,4.522-11.686,8.088-22.6,9.391c-1.417,0.169-2.873,0.297-4.361,0.388c-0.066,0.004-0.135,0.009-0.203,0.012
				c-0.703,0.041-1.412,0.072-2.129,0.095c-0.09,0.002-0.181,0.004-0.273,0.008c-0.727,0.02-1.457,0.031-2.196,0.031
				c-0.027,0-0.055,0-0.08,0c-0.69,0-1.373-0.012-2.051-0.029c-0.128-0.004-0.256-0.008-0.384-0.011
				c-0.691-0.021-1.375-0.053-2.053-0.092c-0.094-0.005-0.186-0.012-0.278-0.018c-1.445-0.089-2.861-0.213-4.24-0.377
				c-10.953-1.293-19.582-4.865-22.677-9.398C0.432,28.486,0,29.127,0,29.663V40.85C0,49.174,14.615,55.927,32.705,56l0.589-0.003
				V56c0.064,0,0.13-0.003,0.194-0.003l0.359-0.002l0.005-0.005C51.684,55.781,66,49.087,66,40.849V29.662
				C65.999,29.127,65.567,28.486,64.764,29.667L64.764,29.667z"/>
		</g>
	</g>
</g>
</svg>
