<?xml version="1.0" encoding="utf-8"?>
<!-- Generator: Adobe Illustrator 15.1.0, SVG Export Plug-In . SVG Version: 6.00 Build 0)  -->
<!DOCTYPE svg PUBLIC "-//W3C//DTD SVG 1.1//EN" "http://www.w3.org/Graphics/SVG/1.1/DTD/svg11.dtd">
<svg version="1.1" id="Picto" xmlns="http://www.w3.org/2000/svg" xmlns:xlink="http://www.w3.org/1999/xlink" x="0px" y="0px"
	 width="62.5px" height="62.833px" viewBox="17.167 17 62.5 62.833" enable-background="new 17.167 17 62.5 62.833"
	 xml:space="preserve">
<path id="Phone" fill="#59514C" stroke="#59514C" stroke-miterlimit="10" d="M65.992,44.353c-1.414,2.105-3.379,1.351-5.483-0.064
	c-2.005-1.346-3.399-2.811-2.303-4.765c-2.456-1.122-5.922-2.264-9.881-2.264c-3.964,0-7.431,1.142-9.883,2.264
	c1.095,1.954-0.302,3.418-2.304,4.765c-2.102,1.416-4.072,2.169-5.488,0.064c-1.415-2.1-0.855-4.951,1.245-6.367
	c0.035-0.024,0.073-0.034,0.108-0.058c0.995-0.724,7.547-5.246,16.322-5.246c8.772,0,15.326,4.522,16.319,5.246
	c0.031,0.023,0.07,0.033,0.108,0.058C66.852,39.401,67.409,42.253,65.992,44.353z M65.914,58.277c0,1.155-0.368,2.752-2.777,2.752
	s-9.719,0-14.812,0c-5.097,0-12.407,0-14.816,0c-2.41,0-2.781-1.597-2.781-2.752c0-3.489,3.736-11.751,11.568-14.71
	c-0.032-0.049-0.069-0.093-0.085-0.146c0,0-0.848-3.746,6.112-3.746c6.961,0,6.119,3.746,6.119,3.746
	c-0.02,0.053-0.059,0.098-0.087,0.146C62.184,46.526,65.914,54.791,65.914,58.277z M53.393,51.738c0-2.8-2.272-5.067-5.064-5.067
	c-2.803,0-5.072,2.267-5.072,5.067c0,2.796,2.269,5.065,5.072,5.065C51.12,56.804,53.393,54.534,53.393,51.738z"/>
<circle fill="none" stroke="#59514C" stroke-width="2" stroke-miterlimit="10" cx="48.322" cy="48.521" r="28.347"/>
</svg>
